<svg xmlns="http://www.w3.org/2000/svg" width="600" height="60"><title>Artboard 1</title><desc>Created with Sketch.</desc><g fill="#fff" fill-rule="evenodd"><path d="M186 60c13.82 0 25.02-11.2 25.02-25s-11.2-25-25-25C172.2 10 161 21.2 161 35s11.2 25 25 25zM172.98 34.9l4.27-4.27c.14-.15.22-.34.22-.54 0-.4-.34-.76-.77-.76-.2 0-.4.1-.55.23l-4.26 4.26-4.3-4.26c-.14-.15-.33-.22-.54-.22-.42 0-.76.34-.76.76 0 .22.08.4.23.55l4.26 4.27-4.27 4.27c-.15.14-.23.33-.23.54 0 .42.34.76.76.76.2 0 .4-.08.54-.22l4.28-4.27 4.26 4.26c.15.16.34.24.55.24.4 0 .76-.34.76-.76 0-.2-.08-.4-.22-.54l-4.27-4.28zM186 30.2c-1.9-1.2-4.42-1.15-6.25.16-1.5 1.06-2.37 2.8-2.37 4.6 0 .45.06.9.17 1.35.57 2.23 2.48 3.92 4.76 4.2.7.08 1.34.04 2.03-.14.58-.14 1.15-.38 1.67-.7.55-.36 1-.82 1.44-1.37l.03-.04c.3-.38.24-.9-.1-1.17-.27-.23-.75-.32-1.12.16l-.27.35c-.3.34-.66.66-1.1.9-.56.3-1.2.47-1.88.48-2.23-.03-3.42-1.58-3.84-2.7-.07-.2-.13-.4-.17-.63l-.02-.12h7.98c1.1-.02 1.68-.8 1.52-1.68-.33-1.56-1.18-2.84-2.48-3.66zm-6.95 3.73c.44-1.75 2.03-3.05 3.92-3.05 1.92 0 3.52 1.33 3.94 3.12h-7.86v-.07zm14.68-4.52h-.24c-.7 0-1.4.23-1.96.67-.08-.34-.4-.6-.75-.6-.43 0-.77.34-.77.76v9.44c0 .42.35.76.77.76.42 0 .76-.34.76-.76v-5.8c0-1.94.18-2.72 1.84-2.93l.32-.02c.45 0 .77-.32.77-.74s-.35-.77-.77-.77zm.4 5.52c0 3.1 2.5 5.6 5.6 5.6s5.6-2.5 5.6-5.6c0-3.1-2.5-5.6-5.6-5.6s-5.6 2.5-5.6 5.6zm1.58 0c0-2.22 1.8-4.02 4.03-4.02 2.22 0 4.03 1.8 4.03 4.02 0 2.22-1.8 4.02-4.03 4.02-2.22 0-4.02-1.8-4.02-4.02zm2.64 0c0 .77.63 1.4 1.4 1.4.76 0 1.38-.63 1.38-1.4s-.62-1.4-1.4-1.4c-.75 0-1.38.63-1.38 1.4zM32.35 51.2c-.94 0-1.17 1-1.17 2.73 0 .64 0 2.38 1.17 2.38.84 0 .93-.93 1-1.54l1.3.13c-.1.88-.34 2.63-2.4 2.63-2.15 0-2.5-2.22-2.5-3.73 0-1.67.43-3.77 2.58-3.77 1.97 0 2.22 1.8 2.32 2.58l-1.3.16c-.1-.84-.24-1.56-1-1.56zm4.63-3.52v9.68H35.6v-9.68H37zm3.43 8.73c.77 0 1.16-.7 1.16-2.63 0-1.84-.38-2.63-1.15-2.63-.82 0-1.14.9-1.14 2.65 0 1.86.38 2.6 1.15 2.6zm0 1.13c-2.05 0-2.6-1.9-2.6-3.76 0-1.72.45-3.74 2.62-3.74 2.06 0 2.58 1.93 2.58 3.67 0 1.67-.36 3.83-2.6 3.83zm4.8-2.8c0 1.02 0 1.6.76 1.6 1.1 0 1.1-1.37 1.1-2.7V50.2h1.37v7.16h-1.26v-1.08c-.24.53-.58 1.26-1.67 1.26-1.66 0-1.66-1.57-1.66-2.76V50.2h1.36v4.55zm7.6-2.97c-.14-.24-.44-.6-.9-.6-1 0-1.14 1.38-1.14 2.53 0 1.2.12 2.67 1.15 2.67.4 0 .7-.23.9-.56.18-.28.3-.63.3-1.42v-1.23c0-.46 0-.93-.3-1.4zm1.64 5.6h-1.26v-1.1c-.17.43-.5 1.23-1.66 1.23-1.86 0-2.2-2.3-2.2-3.68 0-2.46.94-3.75 2.25-3.75 1.03 0 1.36.64 1.52.96v-3.35h1.34v9.68zm6.1-3.5c-1.58 0-1.78.84-1.78 1.5 0 .87.43 1.08.9 1.08.57 0 1.3-.63 1.3-2.22v-.36h-.42zm-.46-3.83c.95 0 1.5.38 1.82.77.4.5.4 1.38.4 2.14v2.43c0 .6 0 1.5.12 2h-1.27c-.07-.36-.1-.53-.1-1.2-.25.5-.68 1.36-1.86 1.36-1.08 0-1.85-.74-1.85-2.06 0-1.14.57-1.94 1.36-2.23.57-.2 1.3-.32 2.25-.3v-.3c0-.5 0-1.52-.98-1.52-.87 0-1.02.8-1.07 1.12l-1.3-.2c.3-1.84 1.86-2 2.48-2zm5.7 1.17c-.93 0-1.15 1-1.15 2.73 0 .64 0 2.38 1.16 2.38.83 0 .93-.93.98-1.54l1.3.13c-.1.88-.32 2.63-2.4 2.63-2.14 0-2.5-2.22-2.5-3.73 0-1.67.44-3.77 2.6-3.77 1.96 0 2.22 1.8 2.3 2.58l-1.3.16c-.1-.84-.23-1.56-1-1.56zm5.66 0c-.93 0-1.16 1-1.16 2.73 0 .64 0 2.38 1.16 2.38.85 0 .94-.93 1-1.54l1.3.13c-.1.88-.33 2.63-2.4 2.63-2.14 0-2.5-2.22-2.5-3.73 0-1.67.44-3.77 2.6-3.77 1.96 0 2.2 1.8 2.3 2.58l-1.3.16c-.1-.84-.23-1.56-1-1.56zm5.7 5.2c.77 0 1.16-.7 1.16-2.63 0-1.84-.38-2.63-1.16-2.63-.83 0-1.15.9-1.15 2.65 0 1.86.38 2.6 1.14 2.6zm0 1.13c-2.05 0-2.6-1.9-2.6-3.76 0-1.72.45-3.74 2.62-3.74 2.06 0 2.58 1.93 2.58 3.67 0 1.67-.36 3.83-2.6 3.83zm4.83-2.8c0 1.02 0 1.6.77 1.6 1.1 0 1.1-1.37 1.1-2.7V50.2h1.36v7.16h-1.26v-1.08c-.24.53-.58 1.26-1.67 1.26-1.66 0-1.66-1.57-1.66-2.76V50.2h1.37v4.55zm5.54-4.53v1.1c.17-.4.5-1.27 1.64-1.27.43 0 1.1.1 1.47.9.23.43.24 1.1.24 1.8v4.63h-1.37v-4.53c0-.93 0-1.6-.8-1.6-1.06 0-1.06 1.38-1.06 2.12v4h-1.35V50.2h1.26zm6.13 1.2v3.16c0 1.25 0 1.72.9 1.72.25 0 .4-.02.57-.04v1.16c-.26.06-.57.13-1 .13-1.8 0-1.8-1.3-1.8-2.87V51.4h-.87v-1.2h.9l.07-1.87 1.23-.12v2h1.26v1.2h-1.27zm3.86-1.2v7.16H96.1V50.2h1.37zm.02-2.54v1.57h-1.44v-1.57h1.44zm2.38 2.54v1.1c.16-.4.5-1.27 1.64-1.27.42 0 1.1.1 1.47.9.22.43.24 1.1.24 1.8v4.63h-1.37v-4.53c0-.93 0-1.6-.8-1.6-1.06 0-1.06 1.38-1.06 2.12v4h-1.35V50.2h1.25zm6.9 3.6c.93 0 .93-1.22.93-1.4 0-.33-.06-1.4-.9-1.4s-.97.8-.97 1.4c0 .23 0 1.4.93 1.4zm.1 5.17c.6 0 1.58-.1 1.58-1 0-.64-.48-.8-.8-.8-.25-.04-1.5-.1-1.78-.1-.2.1-.58.32-.58.9 0 .77.6 1 1.6 1zm2.45-8.87c-.4 0-.62.2-.72.78.33.45.5.96.5 1.54 0 1.12-.72 2.3-2.28 2.3-.38 0-.62-.06-.85-.13-.2.1-.5.22-.5.62 0 .54.34.56 1.68.63 1.28.1 2.57.16 2.57 1.93 0 1.9-1.78 2.22-3 2.22-.94 0-2.66-.2-2.66-1.8 0-1 .66-1.26.95-1.38-.25-.17-.72-.46-.72-1.2 0-.88.68-1.25.98-1.4-.3-.26-.85-.66-.85-1.84 0-1.42.96-2.35 2.3-2.35.64 0 1 .17 1.27.3.1-.55.22-1.32 1.22-1.32.17 0 .3.04.43.06l-.02 1.08c-.1-.02-.2-.04-.3-.04zM14.13 33.46c1.74-.04 2.62-.68 2.62-1.92 0-.84-.2-1.44-.6-1.8-.4-.37-1.08-.56-2.02-.6v4.32zm.65-7.8c1.86 0 3.33.5 4.4 1.48 1.08 1 1.62 2.35 1.62 4.06 0 .88-.2 1.73-.6 2.55-.42.82-1.02 1.44-1.8 1.85l3.15 8.18H17.4l-3.2-8.26h-.07v8.26H10.2V25.65h4.58zm15.08 0v3.84h-4.04v3.34h3.5v3.77h-3.5v3.3h4.06v3.88h-8V25.65h7.98zm12.45 0v6.7h3.5v-6.7h3.96v18.12H45.8v-7.54h-3.5v7.54h-3.94V25.65h3.95zM55.33 39.6c1.22 0 2.14-.2 2.75-.57.6-.37.92-.97.92-1.82 0-1.56-1.1-2.34-3.28-2.34h-.4v4.75zm0-8.68c2.22-.05 3.33-.82 3.33-2.3 0-.88-.26-1.5-.8-1.84-.52-.34-1.37-.53-2.53-.55v4.7zm.12-8.86c2.8 0 4.85.57 6.08 1.7 1.24 1.16 1.86 2.62 1.86 4.4 0 1.9-.9 3.44-2.7 4.6 2.02.84 3.03 2.42 3.03 4.77 0 1.87-.62 3.38-1.9 4.53-1.25 1.15-2.92 1.72-5 1.72h-6.2V22.06h4.84zm12.7 12.44c0 2.24.2 3.74.55 4.5.35.75.87 1.12 1.56 1.12.74 0 1.3-.37 1.7-1.13.4-.76.6-2.23.6-4.42 0-3.54-.76-5.3-2.28-5.3-1.42 0-2.13 1.73-2.13 5.22zm-2.52 7.22c-1.1-1.68-1.65-4.1-1.65-7.28 0-2.92.55-5.2 1.66-6.83 1.1-1.63 2.65-2.44 4.63-2.44 2.1 0 3.72.82 4.84 2.46 1.1 1.63 1.67 3.97 1.67 7.02 0 3.04-.55 5.4-1.65 7.08-1.1 1.68-2.66 2.52-4.7 2.52-2.1 0-3.7-.84-4.8-2.52zm15.55-7.22c0 2.24.18 3.74.54 4.5.38.75.9 1.12 1.58 1.12.74 0 1.3-.37 1.7-1.13.4-.76.6-2.23.6-4.42 0-3.54-.76-5.3-2.27-5.3-1.4 0-2.12 1.73-2.12 5.22zm-1.23-11.08c-.52.8-.88.73-.88.73s.15 1.24 1.9.87c0 0 1.02-2.55 2.45-4.67C111.1 23.35 111 .08 111 .08s-3.45 4.34-14.17 4c-11.2-.4-13.55 12.02-14 15.37-.77.94-1.74 2.22-2.9 3.97zm-1.3 18.3c-1.1-1.68-1.65-4.1-1.65-7.28 0-2.92.55-5.2 1.65-6.83 1.1-1.63 2.65-2.44 4.63-2.44 2.1 0 3.73.8 4.84 2.45 1.12 1.65 1.68 4 1.68 7.04s-.55 5.4-1.65 7.08c-1.1 1.68-2.66 2.52-4.7 2.52-2.1 0-3.7-.84-4.8-2.52zm15.42-16.07v8.52h.07l3.72-8.52H102l-4.04 9.26 3.86 8.88H97.5l-3.37-7.54h-.07v7.54h-3.94V25.65h3.94zm8.08 13.58c1.24.75 2.3 1.14 3.15 1.14.48 0 .87-.15 1.16-.43.28-.3.43-.67.43-1.14 0-.36-.13-.7-.36-1.02-.23-.3-.62-.7-1.2-1.15-1.35-1.1-2.34-2.1-2.95-3.03-.62-.94-.93-2-.93-3.14 0-1.56.47-2.84 1.42-3.82.94-1 2.16-1.48 3.66-1.48 1.1 0 2.22.24 3.3.74v4.06c-1.16-.66-2.1-1-2.84-1-.5 0-.87.12-1.16.37-.28.25-.42.6-.42 1.03 0 .76.66 1.6 1.97 2.56.8.57 1.58 1.35 2.38 2.37.8 1.02 1.2 2.2 1.2 3.53 0 1.57-.52 2.86-1.57 3.9-1.04 1.02-2.37 1.53-3.98 1.53-1.1 0-2.2-.27-3.3-.8v-4.23zM9.8 22.06v4.63H4.9v4h4.34v4.5H4.9v8.58H.2V22.06H9.8zM95.98 9.58c6.43-.67 10.36-3.98 10.36-3.98s-3.92 5-10.75 5.7c-5.9.62-11.28 7.36-11.28 7.36s5.34-8.42 11.66-9.08z"/><path d="M38.7 39.07l-3.97-5.92c-3.97-5.93 4.53-9.76 4.53-9.76l-.62-.67S24.8 25.7 30.6 34.33l3.93 6.2c1.48 2.32-.74 3.65-2.1 3.65h-2.5v1.12h1.94c3.3 0 10.36-.75 6.83-6.23"/><path d="M439.98 15.13c3.5.42 6.88 1.68 9.73 3.7 3.82 2.67 6.67 6.62 8 11.04 1.1 3.65 1.16 7.6.18 11.27-1.04 3.95-3.3 7.57-6.38 10.27-3.06 2.72-6.93 4.5-10.98 5.05-3.83.55-7.8.02-11.36-1.52-3.4-1.47-6.4-3.87-8.58-6.84-2.17-2.96-3.54-6.48-3.9-10.1-.47-4.4.5-8.9 2.76-12.7 2.7-4.62 7.27-8.1 12.45-9.54 2.62-.72 5.38-.92 8.08-.64zm1.7 8.38c0 5.9 0 11.8 0 17.7h2.46c1.8.03 3.58-1.03 4.5-2.65.75-1.3.9-2.93.48-4.38-.54-1.7-1.9-3.08-3.57-3.54-.68-.2-1.4-.2-2.1-.2 0-.96 0-1.94 0-2.9 1.7-.1 3.4.25 4.84 1.18 1.74 1.1 3.06 2.9 3.58 4.94.46 1.73.35 3.6-.3 5.27-.76 2-2.3 3.66-4.2 4.52-1.08.5-2.27.72-3.44.7-1.7 0-3.4 0-5.1 0 0-6.87 0-13.74 0-20.6.95-.02 1.9 0 2.83 0zm-10.08 4.02c1.83 0 3.66 0 5.5 0 0 6.87 0 13.74 0 20.6h-2.82c0-5.9 0-11.78 0-17.68-1.1 0-2.2-.03-3.32.04l-.06.04c-1.44.24-2.75 1.17-3.5 2.46-.76 1.25-1 2.82-.6 4.24.43 1.77 1.8 3.23 3.5 3.75.7.25 1.47.23 2.22.22v2.9c-1.48.1-3-.16-4.34-.88-2.6-1.35-4.42-4.3-4.36-7.35-.06-1.86.58-3.7 1.68-5.17 1.45-1.93 3.74-3.14 6.1-3.18zm48.45-10.58c-.16.73-1.04 1.22-1.7.86-.6-.25-.95-1.07-.64-1.7.18-.4.57-.7 1-.76.82-.13 1.6.77 1.35 1.6zm20.92-.63c.16.64-.2 1.34-.8 1.54-.73.3-1.6-.3-1.64-1.1-.06-.57.3-1.13.8-1.32.65-.3 1.48.16 1.64.9zm-28.7 2.52c.6.08 1.2.32 1.58.8.5.64.62 1.48.63 2.27 0 1.6 0 3.2 0 4.83 0 .2 0 .44-.05.65-.12.17-.35.14-.53.15-.4 0-.8.02-1.18-.02-.23 0-.26-.28-.27-.46 0-1.62 0-3.23 0-4.85 0-.46-.08-1-.45-1.3-.3-.23-.7-.26-1.04-.22-.66.07-1.25.4-1.77.8 0 1.86 0 3.7 0 5.56.02.23-.1.5-.36.48-.55 0-1.14.1-1.67-.1-.05-1.92 0-3.84-.02-5.75 0-.86-.03-1.72.03-2.57.54-.12 1.1-.12 1.66-.06.32.05.2.5.26.74.9-.7 2.05-1.1 3.18-.96zm-7.47.2c.26 0 .24.36.25.55 0 2.45 0 4.9 0 7.36 0 .2 0 .56-.28.58-.5.04-1.04.06-1.55 0-.3-.08-.2-.44-.24-.67.03-2.58-.03-5.17.03-7.76.6-.1 1.2-.08 1.8-.05zm12.43 0c1.38 0 2.76 0 4.15-.02.25 0 .5.03.76.07.02.5.04 1.02 0 1.54.02.16-.13.27-.27.27-.66.03-1.33 0-2 0 0 2.03 0 4.04 0 6.06 0 .2.02.52-.23.57-.5.05-1.04.05-1.56 0-.27-.02-.26-.36-.27-.56 0-2.02.02-4.04 0-6.06-.74-.04-1.5.1-2.25-.1-.02-.56-.02-1.14 0-1.72.56-.1 1.12-.05 1.68-.05zm6.58.02c.6-.07 1.2-.06 1.78.04.04 1.08 0 2.15.02 3.22.02.88-.05 1.78.1 2.65.05.42.37.8.77.87.8.14 1.58-.2 2.2-.68.18-.1.14-.34.15-.52v-4.84c0-.18 0-.36.02-.54.04-.2.26-.2.42-.23.53 0 1.05-.02 1.57.1.08 2.57 0 5.15.03 7.73-.02.22.06.6-.2.67-.5.06-.98.05-1.46 0-.33-.06-.26-.48-.3-.74-.78.64-1.77 1.03-2.77.98-.72 0-1.5-.27-1.95-.88-.47-.63-.6-1.46-.6-2.24v-5.05c0-.2 0-.5.24-.53zm11.03 0c.24.05.16.34.18.53 0 2.45 0 4.9 0 7.36 0 .15 0 .3-.03.45-.13.17-.36.14-.54.15-.5 0-1 .07-1.45-.13-.02-2.77-.03-5.54 0-8.3.6-.13 1.23-.12 1.84-.06zm7.5-.04c.23.02.52-.05.72.12.05.58.1 1.2-.07 1.75-.72.02-1.44 0-2.17 0-.07 1.36 0 2.7-.03 4.06 0 .83.02 1.67 0 2.5-.53.16-1.07.1-1.6.1-.18 0-.3-.1-.45-.2.02-2.16 0-4.3 0-6.45-.67 0-1.35.03-2.03 0-.2 0-.24-.2-.25-.35-.06-.5-.02-1 .04-1.5 1.93-.07 3.88 0 5.82-.03zm-30.66 12.3c.7-.04 1.42-.04 2.12 0 2.37.23 4.66 1.36 6.3 3.15 2.47 2.66 3.4 6.73 2.35 10.26-.68 2.36-2.22 4.5-4.4 5.53 1.68.02 3.38 0 5.07 0v2.1c-3 .02-6.02 0-9.03 0-.92 0-1.83.06-2.74-.08-2.12-.25-4.15-1.23-5.7-2.75-1.87-1.83-2.97-4.44-3.1-7.1-.08-1.76.2-3.55.93-5.14.67-1.56 1.75-2.93 3.07-3.95 1.48-1.12 3.26-1.83 5.1-2zm5.42 3.66c1.77 1.28 2.9 3.43 3.2 5.65.1 1.37.06 2.77-.4 4.07-.6 1.77-1.75 3.36-3.32 4.3-1.64 1.03-3.66 1.32-5.52.92-1.83-.42-3.5-1.58-4.55-3.2-1.34-2-1.73-4.58-1.23-6.94.47-2 1.63-3.87 3.32-4.98 2.5-1.74 6.04-1.67 8.5.18zm40.84-3.16c0 4.3 0 8.6 0 12.9 1.93-1.93 3.86-3.87 5.8-5.8.12-.2.34-.15.53-.16.9 0 1.8 0 2.7 0-2.02 2.02-4.07 4-6.1 6-.14.1-.17.28-.02.37 2.26 2.4 4.52 4.82 6.77 7.23-1.06.02-2.13 0-3.2 0-2.16-2.37-4.32-4.75-6.48-7.13 0 2.38 0 4.76 0 7.14-.73 0-1.47 0-2.2 0 0-6.85 0-13.7 0-20.53.73 0 1.46 0 2.2 0zm15.22 0c.95 0 1.9-.04 2.84.13 1.22.17 2.44.62 3.37 1.48.58.56 1.05 1.26 1.24 2.06.3 1.17.23 2.46-.27 3.56-.6 1.26-1.8 2.1-3.07 2.48.9.13 1.82.42 2.57 1 .96.72 1.63 1.83 1.85 3.03.2 1.05.1 2.15-.24 3.15-.53 1.4-1.74 2.43-3.08 2.95-1.9.75-4 .73-6 .7h-4.18c0-6.84 0-13.7 0-20.54h4.98zm1.53 10.96c1.18.03 2.46.22 3.4 1.02 1.14.95 1.46 2.7.9 4.06-.43 1-1.4 1.64-2.4 1.93-1.2.38-2.5.28-3.74.3-.78 0-1.57 0-2.35-.02 0-2.43 0-4.86 0-7.3 1.4 0 2.8 0 4.2 0zm-4.15-8.7c1.4 0 2.82-.03 4.24 0 .96.12 2 .3 2.73 1.07.7.7.82 1.8.67 2.76-.1.76-.55 1.46-1.18 1.87-.87.58-1.94.7-2.95.7-1.18 0-2.37 0-3.56 0v-4.8c0-.55 0-1.1.05-1.62zm44.5-2.26c0 4.3 0 8.6 0 12.9 2-1.96 3.94-3.97 5.93-5.92 1.03-.08 2.08-.02 3.13-.03-2.1 2.05-4.2 4.13-6.3 6.17 2.3 2.47 4.63 4.94 6.94 7.4-1.07.02-2.14.02-3.2 0-2.17-2.36-4.33-4.73-6.47-7.1-.02 2.36 0 4.74 0 7.12h-2.2c0-6.85 0-13.7 0-20.54.73 0 1.46 0 2.2 0zm-62.2 7.43c.6.34 1.17.8 1.63 1.33-.6.52-1.16 1.06-1.73 1.6-.66-.85-1.6-1.5-2.65-1.6-.84-.06-1.7-.08-2.5.3-1.15.47-1.97 1.6-2.3 2.8-.53 1.87-.25 4.05 1.02 5.52 1.62 1.95 5 1.9 6.44-.26.5.42.94.9 1.4 1.36.1.08.25.23.13.35-.95 1.1-2.3 1.75-3.67 1.96-1.73.25-3.6-.04-5.07-1.05-1.34-.9-2.25-2.4-2.64-3.98-.44-1.87-.28-3.9.58-5.62.74-1.48 2.04-2.63 3.55-3.16 1.88-.66 4.03-.52 5.8.43zm40.56.1c1.7.97 2.9 2.78 3.22 4.75.32 1.85.05 3.84-.94 5.43-.92 1.56-2.5 2.62-4.2 3-1.86.4-3.9.17-5.55-.87-1.47-.9-2.53-2.47-2.94-4.2-.25-.9-.2-1.88-.17-2.82.16-1.63.9-3.2 2.05-4.33 1-.97 2.3-1.56 3.62-1.78 1.66-.26 3.43-.03 4.9.84zm-3.34 1.15c1.14.1 2.27.58 3.06 1.46 1.24 1.36 1.5 3.42 1.07 5.2-.4 1.5-1.55 2.8-3 3.23-1 .3-2.1.3-3.1-.07-1.2-.45-2.16-1.44-2.6-2.67-.56-1.52-.5-3.3.25-4.75.5-.98 1.4-1.75 2.4-2.12.6-.22 1.26-.28 1.9-.28zm42.04-1.38c.7.38 1.24 1.04 1.64 1.76-.6.43-1.2.84-1.82 1.25-.48-.76-1.22-1.4-2.1-1.55-.73-.06-1.48-.07-2.14.26-.6.3-1.13.9-1.1 1.6 0 .6.5.98.94 1.22 1.54.8 3.36.7 4.87 1.57.82.45 1.48 1.27 1.66 2.24.12.67.12 1.35 0 2-.23 1.05-.93 1.93-1.8 2.44-.82.5-1.76.7-2.7.78-1.2.07-2.43-.03-3.55-.53-.9-.4-1.6-1.15-2.16-1.97l1.73-1.4c.62.77 1.4 1.5 2.37 1.72.82.18 1.7.14 2.5-.16.6-.23 1.15-.7 1.32-1.38.06-.44.07-.94-.2-1.32-.4-.6-1.08-.9-1.73-1.06-1.2-.32-2.46-.5-3.6-1.08-.78-.4-1.48-1.1-1.7-2-.27-1.04-.14-2.23.48-3.12.5-.74 1.27-1.23 2.06-1.55 1.62-.6 3.5-.55 5.04.3zm-27.27-.68c1.97-.06 4 .8 5.3 2.37 2.2 2.67 2.16 7.07-.17 9.67-1.3 1.47-3.23 2.22-5.13 2.2-1.5.04-3.05-.4-4.3-1.3-1.58-1.14-2.58-3.08-2.73-5.07-.03-.83-.05-1.66.14-2.46.34-1.64 1.26-3.15 2.58-4.12.75-.55 1.62-.94 2.53-1.14.58-.15 1.18-.16 1.77-.16zm.2 2.06c1.14.1 2.28.57 3.07 1.45 1.2 1.3 1.5 3.27 1.14 4.98-.2.95-.67 1.83-1.36 2.47-1.68 1.63-4.55 1.63-6.24.02-1.03-.96-1.53-2.42-1.52-3.84 0-1.4.45-2.84 1.46-3.8.9-.92 2.2-1.32 3.45-1.28zm-77.94-1.73c0 2.73 0 5.45 0 8.18 0 1.02.2 2.13.9 2.9.6.64 1.54.8 2.38.74 1.08-.03 2.18-.53 2.8-1.47.8-1.17.94-2.67.94-4.07 0-2.1.02-4.2 0-6.3l2.2.02v10.5l.1 3.1c-.7 0-1.38 0-2.06 0-.03-.77-.07-1.53-.08-2.3-.78 1.58-2.42 2.55-4.1 2.62-1.28.07-2.65-.2-3.65-1.1-1.02-.88-1.5-2.26-1.58-3.6-.1-.76-.05-1.54-.06-2.3v-6.92c.72 0 1.46 0 2.2 0zm13.72 0c0 2.13-.02 4.26 0 6.4 0 1.25 0 2.5 0 3.77-.02 1.14.05 2.28-.05 3.42-.72 0-1.43 0-2.15 0 0-4.53 0-9.06 0-13.6.73 0 1.47 0 2.2 0zM599.3 50.1c.5.76.4 1.9-.27 2.53-.84.84-2.45.56-2.9-.58-.5-1 .05-2.36 1.1-2.65.73-.25 1.62.03 2.06.7zM259.74 46.87v-20.5h3.98v8.17h5.6v-8.18h4v20.5h-4V38h-5.6v8.87h-3.98"/><path d="M281.14 39.08h3.94l-1.92-8.3h-.06l-1.96 8.3zm-5.67 7.8l5.15-20.52h5.1l5 20.5h-3.8l-1-4.3h-5.5l-1.12 4.3h-3.83zM296.63 35.28h2.05c1.75 0 2.82-.86 2.82-2.84 0-2-1.07-2.84-2.82-2.84h-2.05v5.68zm5.36 11.6l-3.47-8.36h-1.9v8.35h-3.97v-20.5h5.76c4.78 0 7.05 2.26 7.05 6.12 0 2.55-.92 4.4-3.13 5.22l3.9 9.15H302zM307.1 26.36h3.9l3.66 14.66h.06l3.63-14.66h3.88l-5.3 20.5h-4.5l-5.34-20.5M325.9 46.87v-20.5h10.87v3.45h-6.9v4.72h5.26V38h-5.27v5.4h7.2v3.47H325.9M348.84 32.07c-.66-1.94-1.53-2.76-2.9-2.76-1.42 0-2.2.86-2.2 2.25 0 3.1 8.87 3.33 8.87 9.75 0 3.52-2.44 5.85-6.6 5.85-3.24 0-5.74-1.73-6.8-5.77l3.9-.82c.47 2.47 1.9 3.35 3.1 3.35 1.37 0 2.44-.9 2.44-2.43 0-3.87-8.87-3.92-8.87-9.66 0-3.5 2.13-5.73 6.25-5.73 3.54 0 5.7 2.08 6.4 4.97l-3.58 1.03"/><path d="M367.88 29.82h-4.64v17.05h-3.97V29.82h-4.64v-3.46h13.24v3.46z"/></g></svg>